<svg xmlns="http://www.w3.org/2000/svg">
    <defs>

        <symbol id="icon-search" viewBox="0 0 48 48">
            <path d="M18.9677 33.9353C22.716 33.9353 26.134 32.5476 28.7597 30.2714L42.4883 44L44 42.4883L30.2714 28.7597C32.5476 26.134 33.9353 22.716 33.9353 18.9677C33.9353 10.7012 27.2341 4 18.9677 4C10.7012 4 4 10.7012 4 18.9677C4 27.2341 10.7012 33.9353 18.9677 33.9353ZM18.9677 6.13824C26.042 6.13824 31.7971 11.8933 31.7971 18.9677C31.7971 26.042 26.042 31.7971 18.9677 31.7971C11.8933 31.7971 6.13824 26.042 6.13824 18.9677C6.13824 11.8933 11.8933 6.13824 18.9677 6.13824Z" fill="currentColor"/>
        </symbol>

        <symbol id="icon-cart" viewBox="0 -960 960 960">
            <path d="M200-120q-33 0-56.5-23.5T120-200v-560q0-33 23.5-56.5T200-840h560q33 0 56.5 23.5T840-760v560q0 33-23.5 56.5T760-120H200Zm0-80h560v-560H200v560Zm40-80h480L570-480 450-320l-90-120-120 160Zm-40 80v-560 560Z" fill="currentColor"/>
        </symbol>

        <symbol id="icon-account" viewBox="0 0 48 48">
           <path d="M29.089 24.747C32.6 22.909 35 19.238 35 15C35 8.925 30.075 4 24 4C17.925 4 13 8.925 13 15C13 19.238 15.4 22.909 18.911 24.747C10.89 27.09 5 34.809 5 44H43C43 34.809 37.11 27.09 29.089 24.747ZM15 15C15 10.037 19.037 6 24 6C28.963 6 33 10.037 33 15C33 19.963 28.963 24 24 24C19.037 24 15 19.963 15 15ZM24 26C32.735 26 39.953 33.013 40.896 42H7.104C8.047 33.013 15.265 26 24 26Z" fill="currentColor"/>
        </symbol>


    </defs>
</svg>